<svg width="165" height="172" viewBox="0 0 165 172" fill="none" xmlns="http://www.w3.org/2000/svg">
<path d="M69.1012 95.2231C69.1012 90.6482 70.7447 86.7317 74.0317 83.4735C77.3139 80.2154 81.2617 78.5863 85.875 78.5863C86.8986 78.5863 87.754 78.2403 88.4412 77.5483C89.1284 76.8563 89.4744 75.9985 89.4792 74.9749C89.484 73.9513 89.138 73.0959 88.4412 72.4088C87.7444 71.7216 86.889 71.378 85.875 71.378C79.2818 71.378 73.6352 73.6942 68.9354 78.3268C64.2404 82.9545 61.8929 88.5867 61.8929 95.2231V111.853C61.8929 112.876 62.2389 113.734 62.9309 114.426C63.6229 115.118 64.4807 115.462 65.5042 115.457C66.5278 115.452 67.3832 115.109 68.0704 114.426C68.7576 113.744 69.1012 112.886 69.1012 111.853V95.2231ZM32.6487 166.333C29.4434 166.333 26.7018 165.192 24.424 162.909C22.1461 160.627 21.0048 157.89 21 154.699V143.742C21 140.542 22.1413 137.803 24.424 135.525C26.7066 133.247 29.4458 132.106 32.6415 132.101H41.378V95.2303C41.378 82.9089 45.6958 72.4568 54.3313 63.8741C62.9669 55.2914 73.4815 51 85.875 51C98.2685 51 108.783 55.2914 117.419 63.8741C126.054 72.4568 130.372 82.9065 130.372 95.2231V132.094H139.109C142.309 132.094 145.048 133.235 147.326 135.518C149.604 137.8 150.745 140.54 150.75 143.735V154.692C150.75 157.892 149.609 160.632 147.326 162.909C145.043 165.187 142.304 166.329 139.109 166.333H32.6487Z" fill="#FF0000"/>
<rect x="21" y="127.889" width="129.75" height="43.25" rx="3.46528" fill="#6F737B"/>
<line x1="83" y1="27" x2="83" y2="3" stroke="white" stroke-width="6" stroke-linecap="round"/>
<line x1="4.24264" y1="40" x2="21.2132" y2="56.9706" stroke="white" stroke-width="6" stroke-linecap="round"/>
<line x1="3" y1="-3" x2="27" y2="-3" transform="matrix(-0.707107 0.707107 0.707107 0.707107 164.213 40)" stroke="white" stroke-width="6" stroke-linecap="round"/>
</svg>
