<svg width="22" height="22" viewBox="0 0 22 22" fill="none" xmlns="http://www.w3.org/2000/svg">
<path d="M2.89807 21.4167C2.26149 21.4167 1.71635 21.2128 1.26265 20.8052C0.809718 20.3969 0.583252 19.9062 0.583252 19.3333V4.74999C0.583252 4.17708 0.809718 3.6868 1.26265 3.27916C1.71635 2.87083 2.26149 2.66666 2.89807 2.66666H4.05547V1.74074C4.05547 1.10152 4.57366 0.583328 5.21288 0.583328C5.8521 0.583328 6.37029 1.10152 6.37029 1.74074V2.66666H15.6295V1.74074C15.6295 1.10152 16.1477 0.583328 16.787 0.583328C17.4262 0.583328 17.9444 1.10152 17.9444 1.74074V2.66666H19.1018C19.7383 2.66666 20.2835 2.87083 20.7372 3.27916C21.1901 3.6868 21.4166 4.17708 21.4166 4.74999V19.3333C21.4166 19.9062 21.1901 20.3969 20.7372 20.8052C20.2835 21.2128 19.7383 21.4167 19.1018 21.4167H2.89807ZM2.66659 19.3333H19.3333V8.91666H2.66659V19.3333ZM2.66659 6.83333H19.3333V4.74999H2.66659V6.83333Z" fill="#6F737B"/>
</svg>
