<svg width="24" height="24" viewBox="0 0 24 24" fill="none" xmlns="http://www.w3.org/2000/svg">
<path d="M17.9651 7.60476C18.3986 7.17126 18.3986 6.46842 17.9651 6.03492C17.5316 5.60142 16.8287 5.60142 16.3952 6.03492L12 10.4302L7.60477 6.03492C7.17127 5.60142 6.46842 5.60142 6.03492 6.03492C5.60142 6.46842 5.60142 7.17127 6.03492 7.60477L10.4302 12L6.03492 16.3952C5.60142 16.8287 5.60142 17.5316 6.03492 17.9651C6.46842 18.3986 7.17127 18.3986 7.60477 17.9651L12 13.5698L16.3952 17.9651C16.8287 18.3986 17.5316 18.3986 17.9651 17.9651C18.3986 17.5316 18.3986 16.8287 17.9651 16.3952L13.5698 12L17.9651 7.60476Z" fill="black"/>
</svg>
