<svg width="14" height="14" viewBox="0 0 14 14" fill="none" xmlns="http://www.w3.org/2000/svg">
<path d="M12.9651 2.60476C13.3986 2.17126 13.3986 1.46842 12.9651 1.03492C12.5316 0.601422 11.8287 0.601421 11.3952 1.03492L7 5.43016L2.60477 1.03492C2.17127 0.601421 1.46842 0.601421 1.03492 1.03492C0.601421 1.46842 0.601422 2.17127 1.03492 2.60477L5.43016 7L1.03492 11.3952C0.601421 11.8287 0.601422 12.5316 1.03492 12.9651C1.46842 13.3986 2.17127 13.3986 2.60477 12.9651L7 8.56984L11.3952 12.9651C11.8287 13.3986 12.5316 13.3986 12.9651 12.9651C13.3986 12.5316 13.3986 11.8287 12.9651 11.3952L8.56984 7L12.9651 2.60476Z" fill="black"/>
</svg>
