<svg width="48" height="52" viewBox="0 0 48 52" fill="none" xmlns="http://www.w3.org/2000/svg">
<path d="M20.9512 49.5V2.5C20.9512 1.94772 21.3989 1.5 21.9512 1.5H25.9512C26.5035 1.5 26.9512 1.94771 26.9512 2.5V49.5C26.9512 50.0523 26.5035 50.5 25.9512 50.5H21.9512C21.3989 50.5 20.9512 50.0523 20.9512 49.5Z" stroke="#6F737B" stroke-width="3" stroke-linecap="round"/>
<path d="M3.95117 17.5V8.5C3.95117 7.94772 4.39889 7.5 4.95117 7.5H40.6455C40.8982 7.5 41.1415 7.59569 41.3266 7.76781L46.1641 12.2678C46.5893 12.6633 46.5893 13.3367 46.1641 13.7322L41.3266 18.2322C41.1415 18.4043 40.8982 18.5 40.6455 18.5H4.95117C4.39889 18.5 3.95117 18.0523 3.95117 17.5Z" fill="white" stroke="#6F737B" stroke-width="3" stroke-linecap="round"/>
<path d="M43.9512 35.5V27.5C43.9512 26.9477 43.5035 26.5 42.9512 26.5H7.22982C6.99339 26.5 6.76462 26.5838 6.58409 26.7364L1.85409 30.7364C1.38173 31.1359 1.38173 31.8641 1.85409 32.2636L6.58409 36.2636C6.76462 36.4162 6.99339 36.5 7.22982 36.5H42.9512C43.5035 36.5 43.9512 36.0523 43.9512 35.5Z" fill="white" stroke="#6F737B" stroke-width="3" stroke-linecap="round"/>
</svg>
