<svg width="20" height="20" viewBox="0 0 20 20" fill="none" xmlns="http://www.w3.org/2000/svg">
<path d="M18.2041 0.0107422C19.2128 0.113005 20 0.96435 20 2V18L19.9893 18.2041C19.8938 19.1457 19.1457 19.8938 18.2041 19.9893L18 20H2C0.96435 20 0.113005 19.2128 0.0107422 18.2041L0 18V2C2.57706e-07 0.895431 0.895431 1.61064e-08 2 0H18L18.2041 0.0107422ZM6 18H18V2H6V18ZM15 13C15.5523 13 16 13.4477 16 14C16 14.5523 15.5523 15 15 15H9C8.44771 15 8 14.5523 8 14C8 13.4477 8.44771 13 9 13H15ZM15 9C15.5523 9 16 9.44771 16 10C16 10.5523 15.5523 11 15 11H9C8.44771 11 8 10.5523 8 10C8 9.44771 8.44771 9 9 9H15ZM15 5C15.5523 5 16 5.44772 16 6C16 6.55228 15.5523 7 15 7H9C8.44771 7 8 6.55228 8 6C8 5.44772 8.44771 5 9 5H15Z" fill="black"/>
</svg>
