<svg width="21" height="20" viewBox="0 0 21 20" fill="none" xmlns="http://www.w3.org/2000/svg">
<path d="M19.0374 0.0107422C20.046 0.113005 20.8333 0.96435 20.8333 2V18L20.8225 18.2041C20.7271 19.1457 19.9789 19.8938 19.0374 19.9893L18.8333 20H2.83325C1.7976 20 0.946257 19.2128 0.843994 18.2041L0.833252 18V2C0.833252 0.895431 1.72868 1.61064e-08 2.83325 0H18.8333L19.0374 0.0107422ZM2.83325 18H4.83325V2H2.83325V18ZM6.83325 18H18.8333V2H6.83325V18ZM15.8333 13C16.3855 13 16.8333 13.4477 16.8333 14C16.8333 14.5523 16.3855 15 15.8333 15H9.83325C9.28097 15 8.83325 14.5523 8.83325 14C8.83325 13.4477 9.28097 13 9.83325 13H15.8333ZM15.8333 9C16.3855 9 16.8333 9.44771 16.8333 10C16.8333 10.5523 16.3855 11 15.8333 11H9.83325C9.28097 11 8.83325 10.5523 8.83325 10C8.83325 9.44771 9.28097 9 9.83325 9H15.8333ZM15.8333 5C16.3855 5 16.8333 5.44772 16.8333 6C16.8333 6.55228 16.3855 7 15.8333 7H9.83325C9.28097 7 8.83325 6.55228 8.83325 6C8.83325 5.44772 9.28097 5 9.83325 5H15.8333Z" fill="#6F737B"/>
</svg>
