<svg width="50" height="52" viewBox="0 0 50 52" fill="none" xmlns="http://www.w3.org/2000/svg">
<path d="M13.5 26V30C13.5 30.5523 13.9477 31 14.5 31H35.5C36.0523 31 36.5 30.5523 36.5 30V26C36.5 20.4772 32.0228 16 26.5 16H23.5C17.9772 16 13.5 20.4772 13.5 26Z" fill="white" stroke="#6F737B" stroke-width="3" stroke-linecap="round"/>
<path d="M47.5 32H2.5C1.94772 32 1.5 32.4477 1.5 33V38C1.5 38.5523 1.94772 39 2.5 39H47.5C48.0523 39 48.5 38.5523 48.5 38V33C48.5 32.4477 48.0523 32 47.5 32Z" fill="white" stroke="#6F737B" stroke-width="3" stroke-linecap="round"/>
<path d="M6.5 50V40C6.5 39.4477 6.94772 39 7.5 39H44.5C45.0523 39 45.5 39.4477 45.5 40V50" stroke="#6F737B" stroke-width="3" stroke-linecap="round"/>
<path d="M11.1722 25.7622L9.55701 30.3385C9.51928 30.4454 9.5 30.5579 9.5 30.6713V31C9.5 31.5523 9.94772 32 10.5 32H41.5C42.0523 32 42.5 31.5523 42.5 31V30.7108C42.5 30.5718 42.471 30.4343 42.4149 30.3071L40.3702 25.6724C40.1937 25.2723 39.7761 25.0327 39.3421 25.0864C34.0869 25.7374 30.9833 26.8 25.9811 29.2686C25.6888 29.4128 25.3441 29.407 25.0564 29.2538C20.4039 26.7754 17.3916 25.8204 12.2442 25.1072C11.7771 25.0425 11.3291 25.3176 11.1722 25.7622Z" fill="white" stroke="#6F737B" stroke-width="3" stroke-linecap="round"/>
<circle cx="25" cy="8.5" r="7" fill="white" stroke="#6F737B" stroke-width="3"/>
</svg>
