<svg width="59" height="55" viewBox="0 0 59 55" fill="none" xmlns="http://www.w3.org/2000/svg">
<path d="M5.82663 23.0534C8.07535 11.2909 19.4338 3.57767 31.1964 5.82624C32.5038 6.07619 33.0121 6.46763 33.2201 6.73909C33.4163 6.99512 33.5472 7.4073 33.4643 8.20258C33.3797 9.01485 33.0973 9.99524 32.7038 11.208C32.3268 12.3698 31.852 13.7314 31.4967 15.1192C30.7833 17.9066 30.435 21.209 32.301 24.3246C34.147 27.4067 37.9422 29.9413 44.5933 31.791C45.5832 32.0664 46.3948 32.6888 46.8493 33.4184C47.2885 34.1236 47.3883 34.9009 47.0622 35.6643C43.1448 44.8365 33.2486 50.3722 23.0529 48.423C11.2905 46.1741 3.57808 34.8159 5.82663 23.0534Z" fill="white" stroke="#6F737B" stroke-width="3"/>
<path d="M21.845 10.6207C23.8744 10.0691 25.8462 11.2156 26.3389 13.0281C26.3908 13.219 26.3692 13.2915 26.3661 13.3031C26.3603 13.3247 26.3384 13.3903 26.2256 13.5194C26.1021 13.6606 25.9226 13.8203 25.6431 14.0461C25.3941 14.2472 25.0302 14.5281 24.6988 14.8199C24.2778 15.1906 23.8503 15.6212 23.4923 15.9696C23.1107 16.341 22.779 16.6481 22.4604 16.8867C21.822 17.3646 21.5314 17.3561 21.2916 17.2631C20.267 16.8654 19.4786 16.0399 19.1883 14.9719C18.6956 13.1594 19.8156 11.1724 21.845 10.6207Z" fill="white" stroke="#6F737B" stroke-width="3"/>
<path d="M14.1897 35.2326C14.8321 33.5443 17.0093 32.5305 19.2514 33.3834C19.5117 33.4824 19.6163 33.5768 19.6601 33.6246C19.7035 33.6719 19.7521 33.7443 19.7986 33.8977C19.8508 34.0699 19.8871 34.2952 19.9242 34.6414C19.9567 34.9456 19.9949 35.4053 20.0596 35.837C20.1424 36.3888 20.2718 37.0209 20.3599 37.5113C20.456 38.0467 20.5201 38.499 20.5297 38.8882C20.5395 39.2808 20.4892 39.5066 20.4344 39.6304C20.3974 39.7137 20.3457 39.7906 20.1817 39.8717C19.2175 40.3483 17.967 40.4438 16.7424 39.9779C14.5005 39.1247 13.5475 36.9209 14.1897 35.2326Z" fill="white" stroke="#6F737B" stroke-width="3"/>
<path d="M11.5693 21.3399C12.9344 19.5485 15.4828 19.205 17.2598 20.5589C17.4704 20.7194 17.5235 20.828 17.5421 20.8747C17.5653 20.933 17.5915 21.0417 17.5739 21.2697C17.5549 21.5154 17.4946 21.8052 17.3964 22.226C17.306 22.6138 17.1825 23.1158 17.1034 23.6417C17.0211 24.1886 16.9648 24.7999 16.9093 25.2901C16.8496 25.8173 16.7857 26.2647 16.6878 26.6474C16.4931 27.4081 16.2592 27.5907 15.9971 27.673C14.7783 28.0553 13.4092 27.8595 12.3257 27.0338C10.549 25.6796 10.2042 23.1314 11.5693 21.3399Z" fill="white" stroke="#6F737B" stroke-width="3"/>
<path d="M36.6861 25.2933L45.7022 13.1362C47.5238 10.68 49.9266 8.7142 52.695 7.41517C53.2501 7.1547 53.8722 7.61602 53.7841 8.22284C53.3447 11.2492 52.1611 14.1191 50.3394 16.5754L41.3233 28.7324L38.1298 33.0384L37.8794 34.7632C37.5068 37.3292 35.5305 39.3777 32.9711 39.7926C28.9603 40.4429 24.5247 41.0385 25.7386 40.1884C27.875 38.6923 27.2856 36.5678 29.1647 32.4234C29.5955 31.4733 32.0361 29.7171 33.4926 29.5993L36.6861 25.2933Z" fill="white"/>
<path d="M33.4926 29.5993L38.1298 33.0384M33.4926 29.5993L36.6861 25.2933M33.4926 29.5993C32.0361 29.7171 29.5955 31.4733 29.1647 32.4234C27.2856 36.5678 27.875 38.6923 25.7386 40.1884C24.5247 41.0385 28.9604 40.4429 32.9711 39.7926C35.5305 39.3777 37.5068 37.3292 37.8794 34.7632L38.1298 33.0384M38.1298 33.0384L41.3233 28.7324M36.6861 25.2933L45.7022 13.1362C47.5238 10.68 49.9266 8.7142 52.695 7.41517C53.2501 7.1547 53.8722 7.61602 53.7841 8.22284C53.3447 11.2492 52.1611 14.1191 50.3394 16.5754L41.3233 28.7324M36.6861 25.2933L41.3233 28.7324" stroke="#6F737B" stroke-width="3" stroke-linecap="round"/>
</svg>
