<svg width="20" height="22" viewBox="0 0 20 22" fill="none" xmlns="http://www.w3.org/2000/svg">
<path d="M5 16.8061C5 14.5969 6.79086 12.8061 9 12.8061V14.8061C7.89543 14.8061 7 15.7015 7 16.8061V21.1938H2V19.1938H5V16.8061ZM13 16.8061C13 15.7015 12.1046 14.8061 11 14.8061V12.8061C13.2091 12.8061 15 14.5969 15 16.8061V19.1938H18V21.1938H13V16.8061ZM18 9.5258L10 2.80608L2 9.5258V21.1938C0.895431 21.1938 0 20.2983 0 19.1938V9.5258C4.42757e-05 8.93504 0.261515 8.37453 0.713867 7.99455L8.71387 1.27483C9.45766 0.650049 10.5423 0.65005 11.2861 1.27483L16 5.23381V4.19377C16.0001 3.64159 16.4478 3.19377 17 3.19377C17.5522 3.19377 17.9999 3.64159 18 4.19377V6.9135L19.2861 7.99455C19.7385 8.37453 20 8.93504 20 9.5258V19.1938C20 20.2983 19.1046 21.1938 18 21.1938V9.5258ZM11 12.8061V14.8061H9V12.8061H11Z" fill="#6F737B"/>
</svg>
