<svg width="21" height="21" viewBox="0 0 21 21" fill="none" xmlns="http://www.w3.org/2000/svg">
<path d="M9.21387 0.801805C9.95761 0.177189 11.0424 0.17719 11.7861 0.801805L16.5 4.76075V3.7217C16.5 3.16942 16.9477 2.72171 17.5 2.72171C18.0523 2.72171 18.5 3.16942 18.5 3.7217V6.44042L19.7861 7.52147C20.2384 7.90138 20.4999 8.46205 20.5 9.0527V18.7215C20.4997 19.8259 19.6044 20.7215 18.5 20.7215H14.5V15.7216C14.5 14.617 13.6046 13.7216 12.5 13.7216H8.5C7.39543 13.7216 6.5 14.617 6.5 15.7216V20.7215H2.5C1.39559 20.7215 0.500261 19.8259 0.5 18.7215V9.0527C0.500128 8.46205 0.761587 7.90138 1.21387 7.52147L9.21387 0.801805Z" fill="black"/>
</svg>
