<svg width="23" height="24" viewBox="0 0 23 24" fill="none" xmlns="http://www.w3.org/2000/svg">
<path d="M9.71387 1.80181C10.4576 1.17719 11.5424 1.17719 12.2861 1.80181L17 5.76075V4.7217C17 4.16942 17.4477 3.72171 18 3.72171C18.5523 3.72171 19 4.16942 19 4.7217V7.44042L20.2861 8.52147C20.7384 8.90138 20.9999 9.46205 21 10.0527V19.7216C20.9997 20.8259 20.1044 21.7215 19 21.7215H15V16.7216C15 15.617 14.1046 14.7216 13 14.7216H9C7.89543 14.7216 7 15.617 7 16.7216V21.7215H3C1.89559 21.7215 1.00026 20.8259 1 19.7216V10.0527C1.00013 9.46205 1.26159 8.90138 1.71387 8.52147L9.71387 1.80181Z" fill="#0E7400"/>
</svg>
