<svg width="49" height="48" viewBox="0 0 49 48" fill="none" xmlns="http://www.w3.org/2000/svg">
<path d="M1.5 43.5V4.5C1.5 2.84315 2.84315 1.5 4.5 1.5H34C35.6569 1.5 37 2.84315 37 4.5V43.5C37 45.1569 35.6569 46.5 34 46.5H4.5C2.84315 46.5 1.5 45.1569 1.5 43.5Z" fill="white" stroke="#6F737B" stroke-width="3" stroke-linecap="round"/>
<path d="M9 2V46.5M16 11.5H30.5M16 19.5H25.5" stroke="#6F737B" stroke-width="3" stroke-linecap="round"/>
<path d="M23.6559 27.7958L42.4949 9.64362C42.8809 9.27174 43.4914 9.27026 43.8792 9.64028L46.7833 12.4116C47.1892 12.799 47.1971 13.4444 46.8007 13.8415L28.1011 32.5781L22.6034 34.3095C21.7837 34.5676 21.0417 33.7398 21.3877 32.953L23.6559 27.7958Z" fill="white"/>
<path d="M23.6559 27.7958L42.4949 9.64362C42.8809 9.27174 43.4914 9.27026 43.8792 9.64028L46.7833 12.4116C47.1892 12.799 47.1971 13.4444 46.8007 13.8415L28.1011 32.5781M23.6559 27.7958L28.1011 32.5781M23.6559 27.7958L21.3877 32.953C21.0417 33.7398 21.7837 34.5676 22.6034 34.3095L28.1011 32.5781" stroke="#6F737B" stroke-width="3" stroke-linecap="round"/>
<path d="M38.6016 13.5781L42.6016 17.5781" stroke="#6F737B" stroke-width="3" stroke-linecap="round"/>
</svg>
