<svg width="40" height="52" viewBox="0 0 40 52" fill="none" xmlns="http://www.w3.org/2000/svg">
<path d="M38 10.6V48C38 49.1046 37.1046 50 36 50H4.5C2.84315 50 1.5 48.6569 1.5 47V8.6V4.00003C1.5 2.61931 2.61929 1.50001 4.00002 1.5H4.12847L19.857 1.50001L33.5856 1.50001C34.6902 1.50001 35.5856 2.39545 35.5856 3.50002L35.5856 8.60001H36C37.1046 8.60001 38 9.49544 38 10.6Z" fill="white"/>
<path d="M35.5856 8.60001H36C37.1046 8.60001 38 9.49544 38 10.6V48C38 49.1046 37.1046 50 36 50H4.5C2.84315 50 1.5 48.6569 1.5 47V8.6M35.5856 8.60001L35.5856 3.50002C35.5856 2.39545 34.6902 1.50001 33.5856 1.50001L19.857 1.50001L4.12847 1.5L4.00002 1.5C2.61929 1.50001 1.5 2.61931 1.5 4.00003V8.6M35.5856 8.60001L19.5891 8.6H1.5" stroke="#6F737B" stroke-width="3"/>
<path d="M8 9.82321V21.6121C8 21.7746 8.18361 21.8693 8.31601 21.775L12.384 18.8782C12.4534 18.8287 12.5466 18.8287 12.616 18.8782L16.684 21.775C16.8164 21.8693 17 21.7746 17 21.6121V9" stroke="#6F737B" stroke-width="3" stroke-linecap="round"/>
</svg>
