<svg width="23" height="22" viewBox="0 0 23 22" fill="none" xmlns="http://www.w3.org/2000/svg">
<path d="M9.44001 9.54334C9.44001 8.97272 9.645 8.48422 10.055 8.07783C10.4644 7.67145 10.9568 7.46826 11.5322 7.46826C11.6598 7.46826 11.7665 7.4251 11.8522 7.33879C11.938 7.25248 11.9811 7.14548 11.9817 7.01781C11.9823 6.89015 11.9392 6.78345 11.8522 6.69774C11.7653 6.61203 11.6586 6.56917 11.5322 6.56917C10.7098 6.56917 10.0055 6.85808 9.41933 7.43589C8.83373 8.0131 8.54093 8.71558 8.54093 9.54334V11.6175C8.54093 11.7452 8.58408 11.8522 8.67039 11.9385C8.75671 12.0248 8.8637 12.0677 8.99137 12.0671C9.11904 12.0665 9.22573 12.0236 9.31144 11.9385C9.39715 11.8534 9.44001 11.7464 9.44001 11.6175V9.54334ZM4.89335 18.4128C4.49356 18.4128 4.1516 18.2704 3.86749 17.9857C3.58338 17.701 3.44103 17.3597 3.44043 16.9617V15.5951C3.44043 15.1959 3.58278 14.8542 3.86749 14.5701C4.1522 14.286 4.49385 14.1436 4.89245 14.143H5.98214V9.54424C5.98214 8.0074 6.52069 6.70373 7.59779 5.63323C8.67489 4.56272 9.98635 4.02747 11.5322 4.02747C13.078 4.02747 14.3895 4.56272 15.4666 5.63323C16.5437 6.70373 17.0822 8.00711 17.0822 9.54334V14.1421H18.1719C18.5711 14.1421 18.9127 14.2845 19.1969 14.5692C19.481 14.8539 19.6233 15.1956 19.6239 15.5942V16.9608C19.6239 17.36 19.4816 17.7016 19.1969 17.9857C18.9121 18.2698 18.5705 18.4122 18.1719 18.4128H4.89335Z" fill="#FF0000"/>
<rect x="3.44043" y="13.6176" width="16.1835" height="5.3945" rx="1.79817" fill="#6F737B"/>
</svg>
