<svg width="24" height="24" viewBox="0 0 24 24" fill="none" xmlns="http://www.w3.org/2000/svg">
<line x1="22" y1="21" x2="2" y2="21" stroke="#6F737B" stroke-width="2" stroke-linecap="round"/>
<path d="M4 11H6C6.55228 11 7 11.4477 7 12V21H3V12C3 11.4477 3.44772 11 4 11Z" stroke="#6F737B" stroke-width="2"/>
<path d="M11 8H13C13.5523 8 14 8.44772 14 9V21H10V9C10 8.44772 10.4477 8 11 8Z" stroke="#6F737B" stroke-width="2"/>
<path d="M18 5H20C20.5523 5 21 5.44772 21 6V21H17V6C17 5.44772 17.4477 5 18 5Z" stroke="#6F737B" stroke-width="2"/>
</svg>
