<svg width="55" height="55" viewBox="0 0 55 55" fill="none" xmlns="http://www.w3.org/2000/svg">
<rect width="55" height="55" rx="27.5" fill="#0E7400"/>
<rect x="29" y="13.1316" width="15" height="15" rx="7.5" stroke="#FFFF4A" stroke-width="2"/>
<mask id="path-3-inside-1_2738_6524" fill="white">
<path d="M17.5762 14.2864C20.7536 14.2864 23.559 15.9432 25.251 18.4739C26.5685 17.7043 28.0862 17.2649 29.7021 17.2649C33.7823 17.265 38.251 20.033 38.6104 24.9231H38.6367C38.6412 25.0847 38.6376 25.2452 38.6318 25.4045C38.6327 25.4564 38.6367 25.5085 38.6367 25.5608C38.6367 26.867 38.3336 27.8389 37.8027 28.5627C36.5628 30.9461 34.0703 32.5813 31.1875 32.5813H15.875C11.6457 32.5813 8.21699 29.1524 8.2168 24.9231H8.25684C8.23183 24.6536 8.2168 24.3699 8.2168 24.0715C8.21697 18.6674 12.407 14.2864 17.5762 14.2864Z"/>
</mask>
<path d="M17.5762 14.2864C20.7536 14.2864 23.559 15.9432 25.251 18.4739C26.5685 17.7043 28.0862 17.2649 29.7021 17.2649C33.7823 17.265 38.251 20.033 38.6104 24.9231H38.6367C38.6412 25.0847 38.6376 25.2452 38.6318 25.4045C38.6327 25.4564 38.6367 25.5085 38.6367 25.5608C38.6367 26.867 38.3336 27.8389 37.8027 28.5627C36.5628 30.9461 34.0703 32.5813 31.1875 32.5813H15.875C11.6457 32.5813 8.21699 29.1524 8.2168 24.9231H8.25684C8.23183 24.6536 8.2168 24.3699 8.2168 24.0715C8.21697 18.6674 12.407 14.2864 17.5762 14.2864Z" fill="#0E7400"/>
<path d="M17.5762 14.2864V12.2864H17.5762L17.5762 14.2864ZM25.251 18.4739L23.5884 19.5855L24.6345 21.1502L26.2597 20.2009L25.251 18.4739ZM29.7021 17.2649L29.7022 15.2649H29.7021V17.2649ZM38.6104 24.9231L36.6157 25.0697L36.7519 26.9231H38.6104V24.9231ZM38.6367 24.9231L40.636 24.8677L40.582 22.9231H38.6367V24.9231ZM38.6318 25.4045L36.6331 25.3328L36.6312 25.3863L36.6321 25.4397L38.6318 25.4045ZM38.6367 25.5608H40.6367V25.5608L38.6367 25.5608ZM37.8027 28.5627L36.19 27.38L36.0993 27.5036L36.0285 27.6397L37.8027 28.5627ZM8.2168 24.9231V22.9231H6.2167L6.2168 24.9232L8.2168 24.9231ZM8.25684 24.9231V26.9231H10.451L10.2483 24.7383L8.25684 24.9231ZM8.2168 24.0715L6.2168 24.0715V24.0715H8.2168ZM17.5762 14.2864V16.2864C20.0324 16.2864 22.2368 17.564 23.5884 19.5855L25.251 18.4739L26.9136 17.3623C24.8812 14.3224 21.4748 12.2864 17.5762 12.2864V14.2864ZM25.251 18.4739L26.2597 20.2009C27.2834 19.6029 28.4547 19.2649 29.7021 19.2649V17.2649V15.2649C27.7176 15.2649 25.8535 15.8058 24.2423 16.7469L25.251 18.4739ZM29.7021 17.2649L29.7021 19.2649C33.0644 19.265 36.3551 21.524 36.6157 25.0697L38.6104 24.9231L40.605 24.7765C40.1468 18.5419 34.5003 15.2651 29.7022 15.2649L29.7021 17.2649ZM38.6104 24.9231V26.9231H38.6367V24.9231V22.9231H38.6104V24.9231ZM38.6367 24.9231L36.6375 24.9785C36.6402 25.0768 36.6383 25.1877 36.6331 25.3328L38.6318 25.4045L40.6306 25.4763C40.6368 25.3027 40.6422 25.0927 40.636 24.8677L38.6367 24.9231ZM38.6318 25.4045L36.6321 25.4397C36.6327 25.4717 36.6337 25.4998 36.6345 25.5205C36.6352 25.5387 36.6361 25.5604 36.6364 25.5674C36.6375 25.5919 36.6367 25.5809 36.6367 25.5608L38.6367 25.5608L40.6367 25.5608C40.6367 25.4884 40.634 25.4252 40.6328 25.3976C40.632 25.3786 40.6318 25.3742 40.6315 25.3665C40.6313 25.3612 40.6314 25.3633 40.6315 25.3694L38.6318 25.4045ZM38.6367 25.5608H36.6367C36.6367 26.5534 36.4103 27.0795 36.19 27.38L37.8027 28.5627L39.4155 29.7455C40.2569 28.5983 40.6367 27.1806 40.6367 25.5608H38.6367ZM37.8027 28.5627L36.0285 27.6397C35.1183 29.3892 33.2934 30.5813 31.1875 30.5813V32.5813V34.5813C34.8472 34.5813 38.0073 32.503 39.577 29.4858L37.8027 28.5627ZM31.1875 32.5813V30.5813H15.875V32.5813V34.5813H31.1875V32.5813ZM15.875 32.5813V30.5813C12.7503 30.5813 10.2169 28.0479 10.2168 24.923L8.2168 24.9231L6.2168 24.9232C6.21704 30.2569 10.541 34.5813 15.875 34.5813V32.5813ZM8.2168 24.9231V26.9231H8.25684V24.9231V22.9231H8.2168V24.9231ZM8.25684 24.9231L10.2483 24.7383C10.2284 24.5242 10.2168 24.3025 10.2168 24.0715H8.2168H6.2168C6.2168 24.4374 6.23524 24.783 6.26539 25.1079L8.25684 24.9231ZM8.2168 24.0715L10.2168 24.0716C10.2169 19.6871 13.5945 16.2864 17.5762 16.2864L17.5762 14.2864L17.5762 12.2864C11.2194 12.2864 6.21701 17.6477 6.2168 24.0715L8.2168 24.0715Z" fill="white" mask="url(#path-3-inside-1_2738_6524)"/>
<mask id="path-5-inside-2_2738_6524" fill="white">
<path d="M36.6229 22.1147C33.174 22.1148 30.1284 23.9939 28.2919 26.8647C26.862 25.9921 25.2154 25.4937 23.4618 25.4937C19.0328 25.4937 14.1821 28.6336 13.7919 34.1812H13.7635L13.7479 34.77C13.63 39.2075 17.1947 42.8686 21.6337 42.8687H38.8944C43.2511 42.8685 46.7829 39.3367 46.7831 34.98V34.1812H46.7391C46.7663 33.8755 46.7831 33.5537 46.7831 33.2153C46.7829 27.0847 42.234 22.1147 36.6229 22.1147Z"/>
</mask>
<path d="M36.6229 22.1147C33.174 22.1148 30.1284 23.9939 28.2919 26.8647C26.862 25.9921 25.2154 25.4937 23.4618 25.4937C19.0328 25.4937 14.1821 28.6336 13.7919 34.1812H13.7635L13.7479 34.77C13.63 39.2075 17.1947 42.8686 21.6337 42.8687H38.8944C43.2511 42.8685 46.7829 39.3367 46.7831 34.98V34.1812H46.7391C46.7663 33.8755 46.7831 33.5537 46.7831 33.2153C46.7829 27.0847 42.234 22.1147 36.6229 22.1147Z" fill="#0E7400"/>
<path d="M36.6229 22.1147L36.6229 20.1147H36.6229V22.1147ZM28.2919 26.8647L29.9766 27.9425L28.9214 29.592L27.25 28.5719L28.2919 26.8647ZM23.4618 25.4937V23.4937H23.4619L23.4618 25.4937ZM13.7919 34.1812L15.7869 34.3215L15.6561 36.1812H13.7919V34.1812ZM13.7635 34.1812L11.7643 34.1281L11.8159 32.1812H13.7635V34.1812ZM13.7479 34.77L15.7472 34.8231L15.7472 34.8232L13.7479 34.77ZM21.6337 42.8687V44.8687H21.6336L21.6337 42.8687ZM38.8944 42.8687L38.8945 44.8687H38.8944V42.8687ZM46.7831 34.98H48.7831V34.9801L46.7831 34.98ZM46.7831 34.1812V32.1812H48.7831V34.1812H46.7831ZM46.7391 34.1812V36.1812H44.5538L44.747 34.0043L46.7391 34.1812ZM46.7831 33.2153L48.7831 33.2153V33.2153H46.7831ZM36.6229 22.1147L36.623 24.1147C33.9355 24.1148 31.4905 25.5761 29.9766 27.9425L28.2919 26.8647L26.6071 25.787C28.7663 22.4117 32.4126 20.1148 36.6229 20.1147L36.6229 22.1147ZM28.2919 26.8647L27.25 28.5719C26.1171 27.8805 24.8286 27.4937 23.4617 27.4937L23.4618 25.4937L23.4619 23.4937C25.6023 23.4937 27.607 24.1037 29.3338 25.1576L28.2919 26.8647ZM23.4618 25.4937V27.4937C19.8311 27.4937 16.087 30.0554 15.7869 34.3215L13.7919 34.1812L11.7968 34.0408C12.2772 27.2119 18.2346 23.4937 23.4618 23.4937V25.4937ZM13.7919 34.1812V36.1812H13.7635V34.1812V32.1812H13.7919V34.1812ZM13.7635 34.1812L15.7628 34.2342L15.7472 34.8231L13.7479 34.77L11.7486 34.717L11.7643 34.1281L13.7635 34.1812ZM13.7479 34.77L15.7472 34.8232C15.6592 38.1357 18.3202 40.8686 21.6337 40.8687L21.6337 42.8687L21.6336 44.8687C16.0692 44.8686 11.6008 40.2792 11.7486 34.7169L13.7479 34.77ZM21.6337 42.8687V40.8687H38.8944V42.8687V44.8687H21.6337V42.8687ZM38.8944 42.8687L38.8943 40.8687C42.1465 40.8686 44.7829 38.2321 44.7831 34.9799L46.7831 34.98L48.7831 34.9801C48.7828 40.4412 44.3557 44.8685 38.8945 44.8687L38.8944 42.8687ZM46.7831 34.98H44.7831V34.1812H46.7831H48.7831V34.98H46.7831ZM46.7831 34.1812V36.1812H46.7391V34.1812V32.1812H46.7831V34.1812ZM46.7391 34.1812L44.747 34.0043C44.7696 33.7495 44.7831 33.4872 44.7831 33.2153H46.7831H48.7831C48.7831 33.6202 48.7629 34.0014 48.7313 34.358L46.7391 34.1812ZM46.7831 33.2153L44.7831 33.2154C44.7829 28.0189 40.9664 24.1147 36.6229 24.1147V22.1147V20.1147C43.5016 20.1147 48.7829 26.1505 48.7831 33.2153L46.7831 33.2153Z" fill="white" mask="url(#path-5-inside-2_2738_6524)"/>
</svg>
