<svg width="55" height="55" viewBox="0 0 55 55" fill="none" xmlns="http://www.w3.org/2000/svg">
<rect width="55" height="55" rx="27.5" fill="#0E7400"/>
<mask id="path-2-inside-1_2738_6571" fill="white">
<path d="M40.303 11.0222C37.2298 11.0224 34.5088 12.6213 32.8275 15.0798C31.6631 14.4521 30.353 14.0984 28.9671 14.0984C25.0668 14.0984 20.7944 16.8636 20.4505 21.7488H20.4261C20.4219 21.908 20.4253 22.0664 20.431 22.2234C20.43 22.2775 20.4261 22.3318 20.4261 22.3865C20.4261 23.8135 20.7724 24.841 21.3714 25.5818C22.645 27.8557 25.0753 29.4001 27.8763 29.4001H41.8548C46.0545 29.4 49.463 26.0159 49.5042 21.8259C49.5348 21.5271 49.5501 21.2106 49.5501 20.8757C49.55 15.4336 45.41 11.0222 40.303 11.0222Z"/>
</mask>
<path d="M40.303 11.0222C37.2298 11.0224 34.5088 12.6213 32.8275 15.0798C31.6631 14.4521 30.353 14.0984 28.9671 14.0984C25.0668 14.0984 20.7944 16.8636 20.4505 21.7488H20.4261C20.4219 21.908 20.4253 22.0664 20.431 22.2234C20.43 22.2775 20.4261 22.3318 20.4261 22.3865C20.4261 23.8135 20.7724 24.841 21.3714 25.5818C22.645 27.8557 25.0753 29.4001 27.8763 29.4001H41.8548C46.0545 29.4 49.463 26.0159 49.5042 21.8259C49.5348 21.5271 49.5501 21.2106 49.5501 20.8757C49.55 15.4336 45.41 11.0222 40.303 11.0222Z" fill="#0E7400"/>
<path d="M40.303 11.0222L40.3029 9.02222H40.303V11.0222ZM32.8275 15.0798L34.4783 16.2088L33.4624 17.6943L31.8783 16.8403L32.8275 15.0798ZM28.9671 14.0984V12.0984H28.9672L28.9671 14.0984ZM20.4505 21.7488L22.4456 21.8892L22.3147 23.7488H20.4505V21.7488ZM20.4261 21.7488L18.4268 21.6956L18.4785 19.7488H20.4261V21.7488ZM20.431 22.2234L22.4297 22.1513L22.4316 22.2049L22.4307 22.2586L20.431 22.2234ZM20.4261 22.3865H18.4261V22.3864L20.4261 22.3865ZM21.3714 25.5818L22.9266 24.3242L23.0333 24.4563L23.1163 24.6044L21.3714 25.5818ZM41.8548 29.4001L41.8549 31.4001H41.8548V29.4001ZM49.5042 21.8259L47.5043 21.8063L47.5052 21.714L47.5146 21.6222L49.5042 21.8259ZM49.5501 20.8757L51.5501 20.8757V20.8757H49.5501ZM40.303 11.0222L40.3031 13.0222C37.9521 13.0223 35.8233 14.2421 34.4783 16.2088L32.8275 15.0798L31.1766 13.9508C33.1943 11.0005 36.5074 9.02239 40.3029 9.02222L40.303 11.0222ZM32.8275 15.0798L31.8783 16.8403C30.9923 16.3626 30.0068 16.0984 28.967 16.0984L28.9671 14.0984L28.9672 12.0984C30.6992 12.0984 32.3339 12.5416 33.7766 13.3194L32.8275 15.0798ZM28.9671 14.0984V16.0984C25.8649 16.0984 22.6993 18.2855 22.4456 21.8892L20.4505 21.7488L18.4554 21.6083C18.8896 15.4417 24.2687 12.0984 28.9671 12.0984V14.0984ZM20.4505 21.7488V23.7488H20.4261V21.7488V19.7488H20.4505V21.7488ZM20.4261 21.7488L22.4254 21.8019C22.4228 21.9 22.4246 22.0106 22.4297 22.1513L20.431 22.2234L18.4323 22.2955C18.426 22.1223 18.4209 21.9161 18.4268 21.6956L20.4261 21.7488ZM20.431 22.2234L22.4307 22.2586C22.4301 22.2899 22.4292 22.3175 22.4284 22.3381C22.4278 22.3562 22.4268 22.3782 22.4265 22.3857C22.4255 22.411 22.4261 22.4031 22.4261 22.3865L20.4261 22.3865L18.4261 22.3864C18.4261 22.3152 18.4286 22.2528 18.4298 22.2238C18.4315 22.1832 18.4313 22.1861 18.4313 22.1882L20.431 22.2234ZM20.4261 22.3865H22.4261C22.4261 23.4853 22.6874 24.0285 22.9266 24.3242L21.3714 25.5818L19.8162 26.8394C18.8573 25.6535 18.4261 24.1417 18.4261 22.3865H20.4261ZM21.3714 25.5818L23.1163 24.6044C24.0521 26.2752 25.8312 27.4001 27.8763 27.4001V29.4001V31.4001C24.3194 31.4001 21.2379 29.4361 19.6265 26.5591L21.3714 25.5818ZM27.8763 29.4001V27.4001H41.8548V29.4001V31.4001H27.8763V29.4001ZM41.8548 29.4001L41.8547 27.4001C44.9562 27.4 47.4739 24.9008 47.5043 21.8063L49.5042 21.8259L51.5041 21.8456C51.4521 27.131 47.1528 31.4 41.8549 31.4001L41.8548 29.4001ZM49.5042 21.8259L47.5146 21.6222C47.5376 21.3981 47.5501 21.1501 47.5501 20.8757H49.5501H51.5501C51.5501 21.2711 51.5321 21.656 51.4938 22.0297L49.5042 21.8259ZM49.5501 20.8757L47.5501 20.8758C47.5501 16.4166 44.1876 13.0222 40.303 13.0222V11.0222V9.02222C46.6323 9.02222 51.55 14.4506 51.5501 20.8757L49.5501 20.8757Z" fill="white" mask="url(#path-2-inside-1_2738_6571)"/>
<mask id="path-4-inside-2_2738_6571" fill="white">
<path d="M14.8092 15.3955C17.9866 15.3955 20.792 17.0524 22.484 19.583C23.8015 18.8135 25.3192 18.374 26.9352 18.374C31.0154 18.3742 35.484 21.1421 35.8434 26.0322H35.8698C35.8742 26.1939 35.8706 26.3544 35.8649 26.5137C35.8658 26.5655 35.8698 26.6176 35.8698 26.6699C35.8698 27.9761 35.5666 28.9481 35.0358 29.6719C33.7958 32.0552 31.3033 33.6904 28.4205 33.6904H13.108C8.87869 33.6904 5.45002 30.2615 5.44983 26.0322H5.48987C5.46486 25.7627 5.44983 25.479 5.44983 25.1807C5.45001 19.7765 9.64 15.3955 14.8092 15.3955Z"/>
</mask>
<path d="M14.8092 15.3955C17.9866 15.3955 20.792 17.0524 22.484 19.583C23.8015 18.8135 25.3192 18.374 26.9352 18.374C31.0154 18.3742 35.484 21.1421 35.8434 26.0322H35.8698C35.8742 26.1939 35.8706 26.3544 35.8649 26.5137C35.8658 26.5655 35.8698 26.6176 35.8698 26.6699C35.8698 27.9761 35.5666 28.9481 35.0358 29.6719C33.7958 32.0552 31.3033 33.6904 28.4205 33.6904H13.108C8.87869 33.6904 5.45002 30.2615 5.44983 26.0322H5.48987C5.46486 25.7627 5.44983 25.479 5.44983 25.1807C5.45001 19.7765 9.64 15.3955 14.8092 15.3955Z" fill="#0E7400"/>
<path d="M14.8092 15.3955V13.3955H14.8092L14.8092 15.3955ZM22.484 19.583L20.8214 20.6946L21.8675 22.2593L23.4927 21.31L22.484 19.583ZM26.9352 18.374L26.9353 16.374H26.9352V18.374ZM35.8434 26.0322L33.8488 26.1788L33.985 28.0322H35.8434V26.0322ZM35.8698 26.0322L37.869 25.9768L37.8151 24.0322H35.8698V26.0322ZM35.8649 26.5137L33.8662 26.4419L33.8642 26.4954L33.8652 26.5488L35.8649 26.5137ZM35.8698 26.6699H37.8698V26.6699L35.8698 26.6699ZM35.0358 29.6719L33.423 28.4891L33.3323 28.6128L33.2615 28.7488L35.0358 29.6719ZM5.44983 26.0322V24.0322H3.44974L3.44983 26.0323L5.44983 26.0322ZM5.48987 26.0322V28.0322H7.68403L7.48131 25.8475L5.48987 26.0322ZM5.44983 25.1807L3.44983 25.1806V25.1807H5.44983ZM14.8092 15.3955V17.3955C17.2654 17.3955 19.4699 18.6732 20.8214 20.6946L22.484 19.583L24.1466 18.4714C22.1142 15.4315 18.7078 13.3955 14.8092 13.3955V15.3955ZM22.484 19.583L23.4927 21.31C24.5165 20.712 25.6878 20.374 26.9352 20.374V18.374V16.374C24.9507 16.374 23.0865 16.9149 21.4753 17.856L22.484 19.583ZM26.9352 18.374L26.9351 20.374C30.2974 20.3741 33.5882 22.6331 33.8488 26.1788L35.8434 26.0322L37.838 25.8856C37.3798 19.6511 31.7333 16.3742 26.9353 16.374L26.9352 18.374ZM35.8434 26.0322V28.0322H35.8698V26.0322V24.0322H35.8434V26.0322ZM35.8698 26.0322L33.8705 26.0877C33.8732 26.1859 33.8714 26.2969 33.8662 26.4419L35.8649 26.5137L37.8636 26.5854C37.8698 26.4118 37.8752 26.2018 37.869 25.9768L35.8698 26.0322ZM35.8649 26.5137L33.8652 26.5488C33.8657 26.5809 33.8667 26.6089 33.8675 26.6296C33.8682 26.6479 33.8692 26.6695 33.8695 26.6765C33.8705 26.701 33.8698 26.69 33.8698 26.6699L35.8698 26.6699L37.8698 26.6699C37.8698 26.5975 37.867 26.5343 37.8658 26.5067C37.865 26.4877 37.8648 26.4833 37.8645 26.4756C37.8643 26.4703 37.8645 26.4724 37.8646 26.4785L35.8649 26.5137ZM35.8698 26.6699H33.8698C33.8698 27.6625 33.6433 28.1887 33.423 28.4891L35.0358 29.6719L36.6485 30.8547C37.4899 29.7074 37.8698 28.2897 37.8698 26.6699H35.8698ZM35.0358 29.6719L33.2615 28.7488C32.3514 30.4983 30.5264 31.6904 28.4205 31.6904V33.6904V35.6904C32.0803 35.6904 35.2403 33.6122 36.81 30.5949L35.0358 29.6719ZM28.4205 33.6904V31.6904H13.108V33.6904V35.6904H28.4205V33.6904ZM13.108 33.6904V31.6904C9.98335 31.6904 7.44997 29.157 7.44983 26.0321L5.44983 26.0322L3.44983 26.0323C3.45008 31.366 7.77403 35.6904 13.108 35.6904V33.6904ZM5.44983 26.0322V28.0322H5.48987V26.0322V24.0322H5.44983V26.0322ZM5.48987 26.0322L7.48131 25.8475C7.46145 25.6333 7.44983 25.4116 7.44983 25.1807H5.44983H3.44983C3.44983 25.5465 3.46827 25.8921 3.49842 26.217L5.48987 26.0322ZM5.44983 25.1807L7.44983 25.1807C7.44997 20.7963 10.8276 17.3955 14.8092 17.3955L14.8092 15.3955L14.8092 13.3955C8.45243 13.3956 3.45004 18.7568 3.44983 25.1806L5.44983 25.1807Z" fill="white" mask="url(#path-4-inside-2_2738_6571)"/>
<mask id="path-6-inside-3_2738_6571" fill="white">
<path d="M33.5669 23.1096C30.0773 23.1097 26.9868 24.9246 25.0776 27.7161C23.7557 27.0035 22.2682 26.6028 20.6948 26.6028C16.2659 26.6028 11.4151 29.7428 11.0249 35.2903H10.9966L10.981 35.8792C10.863 40.3166 14.4277 43.9777 18.8667 43.9778H36.1274C40.4842 43.9777 44.0159 40.4458 44.0161 36.0891V35.3547C44.0494 35.022 44.0669 34.6699 44.0669 34.2981C44.0667 28.1187 39.3658 23.1096 33.5669 23.1096Z"/>
</mask>
<path d="M33.5669 23.1096C30.0773 23.1097 26.9868 24.9246 25.0776 27.7161C23.7557 27.0035 22.2682 26.6028 20.6948 26.6028C16.2659 26.6028 11.4151 29.7428 11.0249 35.2903H10.9966L10.981 35.8792C10.863 40.3166 14.4277 43.9777 18.8667 43.9778H36.1274C40.4842 43.9777 44.0159 40.4458 44.0161 36.0891V35.3547C44.0494 35.022 44.0669 34.6699 44.0669 34.2981C44.0667 28.1187 39.3658 23.1096 33.5669 23.1096Z" fill="#0E7400"/>
<path d="M33.5669 23.1096L33.5668 21.1096H33.5669V23.1096ZM25.0776 27.7161L26.7285 28.8451L25.7126 30.3304L24.1287 29.4766L25.0776 27.7161ZM20.6948 26.6028V24.6028H20.6949L20.6948 26.6028ZM11.0249 35.2903L13.02 35.4306L12.8892 37.2903H11.0249V35.2903ZM10.9966 35.2903L8.99728 35.2372L9.04895 33.2903H10.9966V35.2903ZM10.981 35.8792L12.9803 35.9322L12.9803 35.9323L10.981 35.8792ZM18.8667 43.9778V45.9778H18.8667L18.8667 43.9778ZM36.1274 43.9778L36.1275 45.9778H36.1274V43.9778ZM44.0161 36.0891H46.0161V36.0892L44.0161 36.0891ZM44.0161 35.3547H42.0161V35.255L42.026 35.1558L44.0161 35.3547ZM44.0669 34.2981L46.0669 34.298V34.2981H44.0669ZM33.5669 23.1096L33.567 25.1096C30.7992 25.1097 28.3011 26.5458 26.7285 28.8451L25.0776 27.7161L23.4268 26.587C25.6726 23.3034 29.3554 21.1098 33.5668 21.1096L33.5669 23.1096ZM25.0776 27.7161L24.1287 29.4766C23.0856 28.9144 21.9227 28.6028 20.6948 28.6028L20.6948 26.6028L20.6949 24.6028C22.6137 24.6028 24.4258 25.0927 26.0266 25.9555L25.0776 27.7161ZM20.6948 26.6028V28.6028C17.0641 28.6028 13.3201 31.1645 13.02 35.4306L11.0249 35.2903L9.02983 35.1499C9.51021 28.3211 15.4676 24.6028 20.6948 24.6028V26.6028ZM11.0249 35.2903V37.2903H10.9966V35.2903V33.2903H11.0249V35.2903ZM10.9966 35.2903L12.9959 35.3433L12.9803 35.9322L10.981 35.8792L8.98166 35.8261L8.99728 35.2372L10.9966 35.2903ZM10.981 35.8792L12.9803 35.9323C12.8922 39.2449 15.5532 41.9777 18.8667 41.9778L18.8667 43.9778L18.8667 45.9778C13.3022 45.9777 8.83382 41.3883 8.98166 35.826L10.981 35.8792ZM18.8667 43.9778V41.9778H36.1274V43.9778V45.9778H18.8667V43.9778ZM36.1274 43.9778L36.1274 41.9778C39.3795 41.9777 42.016 39.3412 42.0161 36.089L44.0161 36.0891L46.0161 36.0892C46.0159 41.5504 41.5888 45.9776 36.1275 45.9778L36.1274 43.9778ZM44.0161 36.0891H42.0161V35.3547H44.0161H46.0161V36.0891H44.0161ZM44.0161 35.3547L42.026 35.1558C42.0523 34.8928 42.0669 34.6072 42.0669 34.2981H44.0669H46.0669C46.0669 34.7327 46.0464 35.1513 46.0062 35.5536L44.0161 35.3547ZM44.0669 34.2981L42.0669 34.2982C42.0667 29.1017 38.1434 25.1096 33.5669 25.1096V23.1096V21.1096C40.5881 21.1096 46.0667 27.1357 46.0669 34.298L44.0669 34.2981Z" fill="white" mask="url(#path-6-inside-3_2738_6571)"/>
</svg>
