<svg width="55" height="55" viewBox="0 0 55 55" fill="none" xmlns="http://www.w3.org/2000/svg">
<rect width="55" height="55" rx="27.5" fill="#0E7400"/>
<mask id="path-2-inside-1_2738_6546" fill="white">
<path d="M34.6313 8C30.2463 8.00016 26.4123 10.2207 24.3188 13.5342C22.8272 12.8069 21.15 12.3984 19.3774 12.3984C14.3573 12.3986 8.85653 15.6409 8.41449 21.3682H8.38519L8.36078 22.2178C8.23118 26.6629 11.7995 30.3369 16.2465 30.3369H37.9223C40.5931 30.3369 42.953 29.0085 44.3803 26.9775C45.8191 25.4646 46.7559 22.971 46.6313 19.3242C45.4836 12.0991 41.2587 8 34.6313 8Z"/>
</mask>
<path d="M34.6313 8L34.6312 6H34.6313V8ZM24.3188 13.5342L26.0096 14.6024L25.0526 16.1171L23.4423 15.3319L24.3188 13.5342ZM19.3774 12.3984L19.3773 10.3984H19.3774V12.3984ZM8.41449 21.3682L10.4086 21.5221L10.2661 23.3682H8.41449V21.3682ZM8.38519 21.3682L6.38602 21.3107L6.44184 19.3682H8.38519V21.3682ZM8.36078 22.2178L10.36 22.2752L10.3599 22.2761L8.36078 22.2178ZM44.3803 26.9775L42.744 25.8276L42.8291 25.7065L42.931 25.5993L44.3803 26.9775ZM46.6313 19.3242L48.6065 19.0105L48.6259 19.1325L48.6301 19.2559L46.6313 19.3242ZM34.6313 8L34.6314 10C30.9257 10.0001 27.733 11.8747 26.0096 14.6024L24.3188 13.5342L22.628 12.4659C25.0916 8.56668 29.567 6.00018 34.6312 6L34.6313 8ZM24.3188 13.5342L23.4423 15.3319C22.2178 14.7349 20.8397 14.3984 19.3774 14.3984V12.3984V10.3984C21.4602 10.3984 23.4366 10.879 25.1953 11.7365L24.3188 13.5342ZM19.3774 12.3984L19.3774 14.3984C14.9848 14.3986 10.7416 17.2065 10.4086 21.5221L8.41449 21.3682L6.42042 21.2143C6.97142 14.0753 13.7298 10.3986 19.3773 10.3984L19.3774 12.3984ZM8.41449 21.3682V23.3682H8.38519V21.3682V19.3682H8.41449V21.3682ZM8.38519 21.3682L10.3844 21.4256L10.36 22.2752L8.36078 22.2178L6.3616 22.1603L6.38602 21.3107L8.38519 21.3682ZM8.36078 22.2178L10.3599 22.2761C10.2632 25.5943 12.927 28.3369 16.2465 28.3369V30.3369V32.3369C10.672 32.3369 6.19918 27.7315 6.36163 22.1595L8.36078 22.2178ZM16.2465 30.3369V28.3369H37.9223V30.3369V32.3369H16.2465V30.3369ZM37.9223 30.3369V28.3369C39.9135 28.3369 41.6746 27.3492 42.744 25.8276L44.3803 26.9775L46.0166 28.1275C44.2315 30.6677 41.2728 32.3369 37.9223 32.3369V30.3369ZM44.3803 26.9775L42.931 25.5993C43.8913 24.5895 44.7449 22.6842 44.6325 19.3925L46.6313 19.3242L48.6301 19.2559C48.7669 23.2578 47.747 26.3396 45.8296 28.3558L44.3803 26.9775ZM46.6313 19.3242L44.6561 19.638C44.1309 16.332 42.9356 13.9492 41.3082 12.4023C39.7046 10.8779 37.5098 10 34.6313 10V8V6C38.3802 6 41.6115 7.1717 44.0641 9.50314C46.493 11.812 47.984 15.0914 48.6065 19.0105L46.6313 19.3242Z" fill="white" mask="url(#path-2-inside-1_2738_6546)"/>
<line x1="1" y1="-1" x2="11.2066" y2="-1" transform="matrix(-0.229012 0.973424 -0.98148 -0.191563 14.7848 32.3853)" stroke="white" stroke-width="2" stroke-linecap="round"/>
<line x1="1" y1="-1" x2="11.2066" y2="-1" transform="matrix(-0.229012 0.973424 -0.98148 -0.191563 21.7848 34.8694)" stroke="white" stroke-width="2" stroke-linecap="round"/>
<line x1="1" y1="-1" x2="11.2066" y2="-1" transform="matrix(-0.229012 0.973424 -0.98148 -0.191563 30.7848 32.137)" stroke="white" stroke-width="2" stroke-linecap="round"/>
<line x1="1" y1="-1" x2="11.2066" y2="-1" transform="matrix(-0.229012 0.973424 -0.98148 -0.191563 37.7848 35.1179)" stroke="white" stroke-width="2" stroke-linecap="round"/>
</svg>
