<svg width="55" height="55" viewBox="0 0 55 55" fill="none" xmlns="http://www.w3.org/2000/svg">
<rect width="55" height="55" rx="27.5" fill="#0E7400"/>
<path d="M16.0007 38L16.0006 38.0859" stroke="white" stroke-width="2" stroke-linecap="round"/>
<path d="M35.0006 45.2651L35.0005 45.351" stroke="white" stroke-width="2" stroke-linecap="round"/>
<path d="M28.0007 40L28.0007 40.0859" stroke="white" stroke-width="2" stroke-linecap="round"/>
<path d="M39.0008 38.0608L39.0007 38.1467" stroke="white" stroke-width="2" stroke-linecap="round"/>
<path d="M21.0006 45.2046L21.0005 45.2905" stroke="white" stroke-width="2" stroke-linecap="round"/>
<mask id="path-7-inside-1_2738_6597" fill="white">
<path d="M34.6424 9.64893C30.2568 9.64897 26.4223 12.0874 24.3289 15.7261C22.8374 14.9276 21.161 14.478 19.3885 14.478C14.3684 14.478 8.86774 18.0377 8.4256 24.3257H8.3963L8.34943 26.0737C8.23148 30.5112 11.7971 34.1724 16.2361 34.1724H37.9334C41.229 34.1724 44.0512 32.1509 45.2313 29.2808C46.1779 27.6053 46.7406 25.2371 46.6424 22.0815C45.4947 14.1491 41.2698 9.64893 34.6424 9.64893Z"/>
</mask>
<path d="M34.6424 9.64893L34.6424 7.64893H34.6424V9.64893ZM24.3289 15.7261L26.0625 16.7234L25.0952 18.4048L23.385 17.4893L24.3289 15.7261ZM19.3885 14.478L19.3885 12.478H19.3885V14.478ZM8.4256 24.3257L10.4207 24.466L10.2899 26.3257H8.4256V24.3257ZM8.3963 24.3257L6.39702 24.2721L6.44921 22.3257H8.3963V24.3257ZM8.34943 26.0737L6.35013 26.0206L6.35014 26.0201L8.34943 26.0737ZM45.2313 29.2808L43.3815 28.5202L43.4288 28.4052L43.49 28.297L45.2313 29.2808ZM46.6424 22.0815L48.6218 21.7952L48.6379 21.9067L48.6414 22.0193L46.6424 22.0815ZM34.6424 9.64893L34.6424 11.6489C31.0253 11.649 27.8262 13.6578 26.0625 16.7234L24.3289 15.7261L22.5953 14.7287C25.0184 10.517 29.4882 7.64898 34.6424 7.64893L34.6424 9.64893ZM24.3289 15.7261L23.385 17.4893C22.1706 16.8392 20.817 16.478 19.3885 16.478V14.478V12.478C21.5051 12.478 23.5042 13.0161 25.2728 13.9628L24.3289 15.7261ZM19.3885 14.478L19.3885 16.478C15.1662 16.478 10.7727 19.4598 10.4207 24.466L8.4256 24.3257L6.43052 24.1854C6.9628 16.6156 13.5706 12.478 19.3885 12.478L19.3885 14.478ZM8.4256 24.3257V26.3257H8.3963V24.3257V22.3257H8.4256V24.3257ZM8.3963 24.3257L10.3956 24.3793L10.3487 26.1273L8.34943 26.0737L6.35014 26.0201L6.39702 24.2721L8.3963 24.3257ZM8.34943 26.0737L10.3487 26.1269C10.2607 29.4392 12.9223 32.1724 16.2361 32.1724V34.1724V36.1724C10.6719 36.1724 6.20228 31.5832 6.35013 26.0206L8.34943 26.0737ZM16.2361 34.1724V32.1724H37.9334V34.1724V36.1724H16.2361V34.1724ZM37.9334 34.1724V32.1724C40.3897 32.1724 42.4988 30.6672 43.3815 28.5202L45.2313 29.2808L47.081 30.0413C45.6036 33.6346 42.0684 36.1724 37.9334 36.1724V34.1724ZM45.2313 29.2808L43.49 28.297C44.2082 27.0257 44.7337 25.0463 44.6434 22.1438L46.6424 22.0815L48.6414 22.0193C48.7475 25.4279 48.1475 28.185 46.9726 30.2646L45.2313 29.2808ZM46.6424 22.0815L44.663 22.3679C44.1283 18.6721 42.9072 16.0004 41.2532 14.2743C39.6379 12.5885 37.4645 11.6489 34.6424 11.6489V9.64893V7.64893C38.4477 7.64893 41.7005 8.95947 44.1414 11.5069C46.5436 14.0139 48.0088 17.5586 48.6218 21.7952L46.6424 22.0815Z" fill="white" mask="url(#path-7-inside-1_2738_6597)"/>
</svg>
