<svg width="47" height="36" viewBox="0 0 47 36" fill="none" xmlns="http://www.w3.org/2000/svg">
<g filter="url(#filter0_f_658_84)">
<rect x="23.7972" y="3.1557" width="14" height="14" rx="7" fill="#FFD278"/>
<rect x="23.7972" y="3.1557" width="14" height="14" rx="7" fill="#FFDF52"/>
<ellipse cx="31.1972" cy="10.1557" rx="7.4" ry="8" fill="#FFE46E"/>
</g>
<g filter="url(#filter1_f_658_84)">
<path d="M12.5149 3.15558C15.6923 3.15558 18.4977 4.81242 20.1897 7.34308C21.5072 6.57354 23.0249 6.13409 24.6409 6.13409C28.7211 6.13425 33.1897 8.90218 33.5491 13.7923H33.5754C33.5799 13.9539 33.5763 14.1144 33.5706 14.2737C33.5715 14.3256 33.5754 14.3777 33.5754 14.43C33.5754 15.7362 33.2723 16.7081 32.7415 17.4319C31.5015 19.8153 29.009 21.4505 26.1262 21.4505H10.8137C6.58438 21.4505 3.15571 18.0216 3.15552 13.7923H3.19556C3.17055 13.5228 3.15552 13.2391 3.15552 12.9407C3.15569 7.5366 7.34569 3.15562 12.5149 3.15558Z" fill="#95C0C5"/>
</g>
<path d="M12.5149 3.15558C15.6923 3.15558 18.4977 4.81242 20.1897 7.34308C21.5072 6.57354 23.0249 6.13409 24.6409 6.13409C28.7211 6.13425 33.1897 8.90218 33.5491 13.7923H33.5754C33.5799 13.9539 33.5763 14.1144 33.5706 14.2737C33.5715 14.3256 33.5754 14.3777 33.5754 14.43C33.5754 15.7362 33.2723 16.7081 32.7415 17.4319C31.5015 19.8153 29.009 21.4505 26.1262 21.4505H10.8137C6.58438 21.4505 3.15571 18.0216 3.15552 13.7923H3.19556C3.17055 13.5228 3.15552 13.2391 3.15552 12.9407C3.15569 7.5366 7.34569 3.15562 12.5149 3.15558Z" fill="white"/>
<g filter="url(#filter2_f_658_84)">
<path d="M32.7513 10.9839C29.1235 10.984 25.9205 12.8757 23.9886 15.7651C22.4844 14.8865 20.7517 14.3843 18.9066 14.3843C14.1697 14.3844 8.9719 17.652 8.71619 23.4116H8.70544L8.68787 24.0474C8.5645 28.4884 12.1309 32.1558 16.5736 32.1558H35.5502C39.907 32.1556 43.4388 28.6229 43.4388 24.2661V23.4116H43.3636C43.4124 23.0212 43.4388 22.6034 43.4388 22.1567C43.4387 15.9862 38.6536 10.9839 32.7513 10.9839Z" fill="#7CADB4"/>
</g>
<path d="M32.7513 10.9839C29.1235 10.984 25.9205 12.8757 23.9886 15.7651C22.4844 14.8865 20.7517 14.3843 18.9066 14.3843C14.2479 14.3844 9.14335 17.545 8.73279 23.1284H8.70544L8.68787 23.7642C8.5645 28.2052 12.1309 31.8726 16.5736 31.8726H35.5502C39.9069 31.8724 43.4387 28.3406 43.4388 23.9839V23.1284H43.3929C43.4215 22.8209 43.4388 22.4972 43.4388 22.1567C43.4387 15.9862 38.6536 10.9839 32.7513 10.9839Z" fill="#E7F0F1"/>
<path d="M31.5616 10.9839C28.1127 10.984 25.0671 12.8631 23.2306 15.7339C21.8008 14.8612 20.1542 14.3629 18.4005 14.3628C13.9715 14.3628 9.12083 17.5028 8.73059 23.0503H8.70227L8.68665 23.6392C8.5687 28.0766 12.1334 31.7377 16.5724 31.7378H33.8331C38.1898 31.7377 41.7216 28.2058 41.7218 23.8491V23.0503H41.6779C41.705 22.7446 41.7218 22.4229 41.7218 22.0845C41.7216 15.9538 37.1727 10.9839 31.5616 10.9839Z" fill="#F4F8F9"/>
<defs>
<filter id="filter0_f_658_84" x="22.1972" y="0.555701" width="18" height="19.2" filterUnits="userSpaceOnUse" color-interpolation-filters="sRGB">
<feFlood flood-opacity="0" result="BackgroundImageFix"/>
<feBlend mode="normal" in="SourceGraphic" in2="BackgroundImageFix" result="shape"/>
<feGaussianBlur stdDeviation="0.8" result="effect1_foregroundBlur_658_84"/>
</filter>
<filter id="filter1_f_658_84" x="-5.8651e-05" y="2.38419e-06" width="36.733" height="24.6061" filterUnits="userSpaceOnUse" color-interpolation-filters="sRGB">
<feFlood flood-opacity="0" result="BackgroundImageFix"/>
<feBlend mode="normal" in="SourceGraphic" in2="BackgroundImageFix" result="shape"/>
<feGaussianBlur stdDeviation="1.57779" result="effect1_foregroundBlur_658_84"/>
</filter>
<filter id="filter2_f_658_84" x="5.52924" y="7.82831" width="41.0652" height="27.483" filterUnits="userSpaceOnUse" color-interpolation-filters="sRGB">
<feFlood flood-opacity="0" result="BackgroundImageFix"/>
<feBlend mode="normal" in="SourceGraphic" in2="BackgroundImageFix" result="shape"/>
<feGaussianBlur stdDeviation="1.57779" result="effect1_foregroundBlur_658_84"/>
</filter>
</defs>
</svg>
