<svg width="55" height="55" viewBox="0 0 55 55" fill="none" xmlns="http://www.w3.org/2000/svg">
<rect width="55" height="55" rx="27.5" fill="#F1F4F8"/>
<rect x="28.9746" y="13.1316" width="15" height="15" rx="7.5" stroke="#969BA5" stroke-width="2"/>
<mask id="path-3-inside-1_2738_6513" fill="white">
<path d="M17.5508 14.2864C20.7282 14.2864 23.5336 15.9432 25.2256 18.4739C26.5431 17.7043 28.0608 17.2649 29.6768 17.2649C33.7569 17.265 38.2256 20.033 38.585 24.9231H38.6113C38.6158 25.0847 38.6122 25.2452 38.6064 25.4045C38.6074 25.4564 38.6113 25.5085 38.6113 25.5608C38.6113 26.867 38.3082 27.8389 37.7773 28.5627C36.5374 30.9461 34.0449 32.5813 31.1621 32.5813H15.8496C11.6203 32.5813 8.1916 29.1524 8.19141 24.9231H8.23145C8.20644 24.6536 8.19141 24.3699 8.19141 24.0715C8.19158 18.6674 12.3816 14.2864 17.5508 14.2864Z"/>
</mask>
<path d="M17.5508 14.2864C20.7282 14.2864 23.5336 15.9432 25.2256 18.4739C26.5431 17.7043 28.0608 17.2649 29.6768 17.2649C33.7569 17.265 38.2256 20.033 38.585 24.9231H38.6113C38.6158 25.0847 38.6122 25.2452 38.6064 25.4045C38.6074 25.4564 38.6113 25.5085 38.6113 25.5608C38.6113 26.867 38.3082 27.8389 37.7773 28.5627C36.5374 30.9461 34.0449 32.5813 31.1621 32.5813H15.8496C11.6203 32.5813 8.1916 29.1524 8.19141 24.9231H8.23145C8.20644 24.6536 8.19141 24.3699 8.19141 24.0715C8.19158 18.6674 12.3816 14.2864 17.5508 14.2864Z" fill="#F1F4F8"/>
<path d="M17.5508 14.2864V12.2864H17.5508L17.5508 14.2864ZM25.2256 18.4739L23.563 19.5855L24.6091 21.1502L26.2343 20.2009L25.2256 18.4739ZM29.6768 17.2649L29.6768 15.2649H29.6768V17.2649ZM38.585 24.9231L36.5903 25.0697L36.7266 26.9231H38.585V24.9231ZM38.6113 24.9231L40.6106 24.8677L40.5566 22.9231H38.6113V24.9231ZM38.6064 25.4045L36.6077 25.3328L36.6058 25.3863L36.6068 25.4397L38.6064 25.4045ZM38.6113 25.5608H40.6113V25.5608L38.6113 25.5608ZM37.7773 28.5627L36.1646 27.38L36.0739 27.5036L36.0031 27.6397L37.7773 28.5627ZM8.19141 24.9231V22.9231H6.19131L6.19141 24.9232L8.19141 24.9231ZM8.23145 24.9231V26.9231H10.4256L10.2229 24.7383L8.23145 24.9231ZM8.19141 24.0715L6.19141 24.0715V24.0715H8.19141ZM17.5508 14.2864V16.2864C20.007 16.2864 22.2114 17.564 23.563 19.5855L25.2256 18.4739L26.8882 17.3623C24.8558 14.3224 21.4494 12.2864 17.5508 12.2864V14.2864ZM25.2256 18.4739L26.2343 20.2009C27.2581 19.6029 28.4293 19.2649 29.6768 19.2649V17.2649V15.2649C27.6923 15.2649 25.8281 15.8058 24.2169 16.7469L25.2256 18.4739ZM29.6768 17.2649L29.6767 19.2649C33.039 19.265 36.3298 21.524 36.5903 25.0697L38.585 24.9231L40.5796 24.7765C40.1214 18.5419 34.4749 15.2651 29.6768 15.2649L29.6768 17.2649ZM38.585 24.9231V26.9231H38.6113V24.9231V22.9231H38.585V24.9231ZM38.6113 24.9231L36.6121 24.9785C36.6148 25.0768 36.6129 25.1877 36.6077 25.3328L38.6064 25.4045L40.6052 25.4763C40.6114 25.3027 40.6168 25.0927 40.6106 24.8677L38.6113 24.9231ZM38.6064 25.4045L36.6068 25.4397C36.6073 25.4717 36.6083 25.4998 36.6091 25.5205C36.6098 25.5387 36.6107 25.5604 36.611 25.5674C36.6121 25.5919 36.6113 25.5809 36.6113 25.5608L38.6113 25.5608L40.6113 25.5608C40.6113 25.4884 40.6086 25.4252 40.6074 25.3976C40.6066 25.3786 40.6064 25.3742 40.6061 25.3665C40.6059 25.3612 40.606 25.3633 40.6061 25.3694L38.6064 25.4045ZM38.6113 25.5608H36.6113C36.6113 26.5534 36.3849 27.0795 36.1646 27.38L37.7773 28.5627L39.3901 29.7455C40.2315 28.5983 40.6113 27.1806 40.6113 25.5608H38.6113ZM37.7773 28.5627L36.0031 27.6397C35.0929 29.3892 33.268 30.5813 31.1621 30.5813V32.5813V34.5813C34.8218 34.5813 37.9819 32.503 39.5516 29.4858L37.7773 28.5627ZM31.1621 32.5813V30.5813H15.8496V32.5813V34.5813H31.1621V32.5813ZM15.8496 32.5813V30.5813C12.7249 30.5813 10.1916 28.0479 10.1914 24.923L8.19141 24.9231L6.19141 24.9232C6.19165 30.2569 10.5156 34.5813 15.8496 34.5813V32.5813ZM8.19141 24.9231V26.9231H8.23145V24.9231V22.9231H8.19141V24.9231ZM8.23145 24.9231L10.2229 24.7383C10.203 24.5242 10.1914 24.3025 10.1914 24.0715H8.19141H6.19141C6.19141 24.4374 6.20985 24.783 6.24 25.1079L8.23145 24.9231ZM8.19141 24.0715L10.1914 24.0716C10.1915 19.6871 13.5691 16.2864 17.5508 16.2864L17.5508 14.2864L17.5508 12.2864C11.194 12.2864 6.19162 17.6477 6.19141 24.0715L8.19141 24.0715Z" fill="#969BA5" mask="url(#path-3-inside-1_2738_6513)"/>
<mask id="path-5-inside-2_2738_6513" fill="white">
<path d="M36.3085 22.0005C32.8189 22.0006 29.7284 23.8154 27.8192 26.6069C26.4973 25.8944 25.0098 25.4937 23.4364 25.4937C19.0074 25.4937 14.1567 28.6336 13.7665 34.1812H13.7382L13.7225 34.77C13.6046 39.2075 17.1693 42.8686 21.6083 42.8687H38.869C43.2257 42.8685 46.7575 39.3367 46.7577 34.98V34.2456C46.7909 33.9129 46.8085 33.5608 46.8085 33.189C46.8083 27.0095 42.1073 22.0005 36.3085 22.0005Z"/>
</mask>
<path d="M36.3085 22.0005C32.8189 22.0006 29.7284 23.8154 27.8192 26.6069C26.4973 25.8944 25.0098 25.4937 23.4364 25.4937C19.0074 25.4937 14.1567 28.6336 13.7665 34.1812H13.7382L13.7225 34.77C13.6046 39.2075 17.1693 42.8686 21.6083 42.8687H38.869C43.2257 42.8685 46.7575 39.3367 46.7577 34.98V34.2456C46.7909 33.9129 46.8085 33.5608 46.8085 33.189C46.8083 27.0095 42.1073 22.0005 36.3085 22.0005Z" fill="#F1F4F8"/>
<path d="M36.3085 22.0005L36.3084 20.0005H36.3085V22.0005ZM27.8192 26.6069L29.47 27.736L28.4542 29.2212L26.8703 28.3675L27.8192 26.6069ZM23.4364 25.4937V23.4937H23.4365L23.4364 25.4937ZM13.7665 34.1812L15.7615 34.3215L15.6307 36.1812H13.7665V34.1812ZM13.7382 34.1812L11.7389 34.1281L11.7905 32.1812H13.7382V34.1812ZM13.7225 34.77L15.7218 34.8231L15.7218 34.8232L13.7225 34.77ZM21.6083 42.8687V44.8687H21.6082L21.6083 42.8687ZM38.869 42.8687L38.8691 44.8687H38.869V42.8687ZM46.7577 34.98H48.7577V34.9801L46.7577 34.98ZM46.7577 34.2456H44.7577V34.1459L44.7676 34.0467L46.7577 34.2456ZM46.8085 33.189L48.8085 33.1889V33.189H46.8085ZM36.3085 22.0005L36.3085 24.0005C33.5408 24.0006 31.0426 25.4367 29.47 27.736L27.8192 26.6069L26.1684 25.4779C28.4142 22.1942 32.097 20.0006 36.3084 20.0005L36.3085 22.0005ZM27.8192 26.6069L26.8703 28.3675C25.8272 27.8052 24.6643 27.4937 23.4363 27.4937L23.4364 25.4937L23.4365 23.4937C25.3552 23.4937 27.1674 23.9836 28.7682 24.8464L27.8192 26.6069ZM23.4364 25.4937V27.4937C19.8057 27.4937 16.0616 30.0554 15.7615 34.3215L13.7665 34.1812L11.7714 34.0408C12.2518 27.2119 18.2092 23.4937 23.4364 23.4937V25.4937ZM13.7665 34.1812V36.1812H13.7382V34.1812V32.1812H13.7665V34.1812ZM13.7382 34.1812L15.7375 34.2342L15.7218 34.8231L13.7225 34.77L11.7232 34.717L11.7389 34.1281L13.7382 34.1812ZM13.7225 34.77L15.7218 34.8232C15.6338 38.1357 18.2948 40.8686 21.6083 40.8687L21.6083 42.8687L21.6082 44.8687C16.0438 44.8686 11.5754 40.2792 11.7232 34.7169L13.7225 34.77ZM21.6083 42.8687V40.8687H38.869V42.8687V44.8687H21.6083V42.8687ZM38.869 42.8687L38.869 40.8687C42.1211 40.8686 44.7575 38.2321 44.7577 34.9799L46.7577 34.98L48.7577 34.9801C48.7575 40.4412 44.3303 44.8685 38.8691 44.8687L38.869 42.8687ZM46.7577 34.98H44.7577V34.2456H46.7577H48.7577V34.98H46.7577ZM46.7577 34.2456L44.7676 34.0467C44.7939 33.7836 44.8085 33.4981 44.8085 33.189H46.8085H48.8085C48.8085 33.6236 48.788 34.0421 48.7478 34.4445L46.7577 34.2456ZM46.8085 33.189L44.8085 33.189C44.8083 27.9925 40.885 24.0005 36.3085 24.0005V22.0005V20.0005C43.3297 20.0005 48.8082 26.0265 48.8085 33.1889L46.8085 33.189Z" fill="#969BA5" mask="url(#path-5-inside-2_2738_6513)"/>
</svg>
