<svg width="51" height="39" viewBox="0 0 51 39" fill="none" xmlns="http://www.w3.org/2000/svg">
<g filter="url(#filter0_f_658_131)">
<path d="M39.6763 2.55939C36.7338 2.55939 34.1358 4.09379 32.5688 6.43732C31.3488 5.72471 29.9432 5.3172 28.4468 5.3172C24.6051 5.31736 20.3909 7.96756 20.1831 12.6385H20.1733L20.1587 13.1551C20.0588 16.757 22.9519 19.7313 26.5552 19.7313H41.9458C45.4795 19.7313 48.344 16.8664 48.3442 13.3328V12.6385H48.2817C48.3212 12.322 48.3442 11.9839 48.3442 11.6219C48.3442 6.61708 44.4635 2.55944 39.6763 2.55939Z" fill="#7CADB4"/>
</g>
<path d="M39.6763 2.55939C36.7338 2.55939 34.1358 4.09379 32.5688 6.43732C31.3488 5.72471 29.9432 5.3172 28.4468 5.3172C24.6682 5.31736 20.5306 7.88132 20.1978 12.41H20.1733L20.1587 12.9256C20.0587 16.5275 22.9518 19.5018 26.5552 19.5018H41.9458C45.4795 19.5018 48.3441 16.637 48.3442 13.1033V12.41H48.3071C48.3303 12.1605 48.3442 11.8981 48.3442 11.6219C48.3442 6.61708 44.4635 2.55944 39.6763 2.55939Z" fill="#E7F0F1"/>
<path d="M38.7114 2.55939C35.9139 2.55939 33.4442 4.08421 31.9546 6.4129C30.7947 5.70483 29.4592 5.29971 28.0366 5.29962C24.4446 5.29962 20.5097 7.84644 20.1929 12.3455H20.1704L20.1577 12.824C20.0622 16.423 22.9539 19.3924 26.5542 19.3924H40.5532C44.0869 19.3924 46.9515 16.5276 46.9517 12.994V12.3455H46.9165C46.9385 12.0978 46.9517 11.8374 46.9517 11.5633C46.9517 6.59084 43.2624 2.5595 38.7114 2.55939Z" fill="#F4F8F9"/>
<g filter="url(#filter1_f_658_131)">
<path d="M12.5149 6.55939C15.6923 6.55939 18.4977 8.21623 20.1897 10.7469C21.5072 9.97735 23.0249 9.5379 24.6409 9.5379C28.7211 9.53806 33.1897 12.306 33.5491 17.1961H33.5754C33.5799 17.3578 33.5763 17.5182 33.5706 17.6776C33.5715 17.7294 33.5754 17.7815 33.5754 17.8338C33.5754 19.14 33.2723 20.1119 32.7415 20.8358C31.5015 23.2191 29.009 24.8543 26.1262 24.8543H10.8137C6.58438 24.8543 3.15571 21.4254 3.15552 17.1961H3.19556C3.17055 16.9266 3.15552 16.6429 3.15552 16.3445C3.15569 10.9404 7.34569 6.55943 12.5149 6.55939Z" fill="#7CADB4"/>
</g>
<path d="M12.5149 6.55939C15.6923 6.55939 18.4977 8.21623 20.1897 10.7469C21.5072 9.97735 23.0249 9.5379 24.6409 9.5379C28.7211 9.53806 33.1897 12.306 33.5491 17.1961H33.5754C33.5799 17.3578 33.5763 17.5182 33.5706 17.6776C33.5715 17.7294 33.5754 17.7815 33.5754 17.8338C33.5754 19.14 33.2723 20.1119 32.7415 20.8358C31.5015 23.2191 29.009 24.8543 26.1262 24.8543H10.8137C6.58438 24.8543 3.15571 21.4254 3.15552 17.1961H3.19556C3.17055 16.9266 3.15552 16.6429 3.15552 16.3445C3.15569 10.9404 7.34569 6.55943 12.5149 6.55939Z" fill="white"/>
<g filter="url(#filter2_f_658_131)">
<path d="M32.7513 14.3877C29.1235 14.3878 25.9205 16.2796 23.9886 19.1689C22.4844 18.2903 20.7517 17.7881 18.9066 17.7881C14.1697 17.7882 8.9719 21.0558 8.71619 26.8154H8.70544L8.68787 27.4512C8.5645 31.8922 12.1309 35.5596 16.5736 35.5596H35.5502C39.907 35.5594 43.4388 32.0268 43.4388 27.6699V26.8154H43.3636C43.4124 26.425 43.4388 26.0072 43.4388 25.5605C43.4387 19.39 38.6536 14.3877 32.7513 14.3877Z" fill="#7CADB4"/>
</g>
<path d="M32.7513 14.3877C29.1235 14.3878 25.9205 16.2796 23.9886 19.1689C22.4844 18.2903 20.7517 17.7881 18.9066 17.7881C14.2479 17.7882 9.14335 20.9488 8.73279 26.5322H8.70544L8.68787 27.168C8.5645 31.609 12.1309 35.2764 16.5736 35.2764H35.5502C39.9069 35.2762 43.4387 31.7444 43.4388 27.3877V26.5322H43.3929C43.4215 26.2247 43.4388 25.901 43.4388 25.5605C43.4387 19.39 38.6536 14.3877 32.7513 14.3877Z" fill="#E7F0F1"/>
<path d="M31.5616 14.3877C28.1127 14.3878 25.0671 16.2669 23.2306 19.1377C21.8008 18.2651 20.1542 17.7667 18.4005 17.7666C13.9715 17.7666 9.12083 20.9066 8.73059 26.4541H8.70227L8.68665 27.043C8.5687 31.4804 12.1334 35.1415 16.5724 35.1416H33.8331C38.1898 35.1415 41.7216 31.6096 41.7218 27.2529V26.4541H41.6779C41.705 26.1484 41.7218 25.8267 41.7218 25.4883C41.7216 19.3576 37.1727 14.3877 31.5616 14.3877Z" fill="#F4F8F9"/>
<defs>
<filter id="filter0_f_658_131" x="17.5967" y="-6.19888e-06" width="33.3069" height="22.2907" filterUnits="userSpaceOnUse" color-interpolation-filters="sRGB">
<feFlood flood-opacity="0" result="BackgroundImageFix"/>
<feBlend mode="normal" in="SourceGraphic" in2="BackgroundImageFix" result="shape"/>
<feGaussianBlur stdDeviation="1.2797" result="effect1_foregroundBlur_658_131"/>
</filter>
<filter id="filter1_f_658_131" x="-5.8651e-05" y="3.40381" width="36.733" height="24.6061" filterUnits="userSpaceOnUse" color-interpolation-filters="sRGB">
<feFlood flood-opacity="0" result="BackgroundImageFix"/>
<feBlend mode="normal" in="SourceGraphic" in2="BackgroundImageFix" result="shape"/>
<feGaussianBlur stdDeviation="1.57779" result="effect1_foregroundBlur_658_131"/>
</filter>
<filter id="filter2_f_658_131" x="5.52924" y="11.2321" width="41.0652" height="27.483" filterUnits="userSpaceOnUse" color-interpolation-filters="sRGB">
<feFlood flood-opacity="0" result="BackgroundImageFix"/>
<feBlend mode="normal" in="SourceGraphic" in2="BackgroundImageFix" result="shape"/>
<feGaussianBlur stdDeviation="1.57779" result="effect1_foregroundBlur_658_131"/>
</filter>
</defs>
</svg>
