<svg width="55" height="55" viewBox="0 0 55 55" fill="none" xmlns="http://www.w3.org/2000/svg">
<rect width="55" height="55" rx="27.5" fill="#F1F4F8"/>
<mask id="path-2-inside-1_2738_6536" fill="white">
<path d="M34.6319 8C30.2466 8 26.4129 10.2213 24.3194 13.5352C22.8277 12.8077 21.1508 12.3985 19.378 12.3984C14.3579 12.3984 8.85718 15.6408 8.4151 21.3682H8.38483L8.36041 22.2178C8.23082 26.6629 11.7991 30.3369 16.2462 30.3369H37.9229C40.5936 30.3368 42.9527 29.0083 44.3799 26.9775C45.8189 25.4646 46.7565 22.9711 46.6319 19.3242C45.4842 12.0992 41.2592 8.00007 34.6319 8Z"/>
</mask>
<path d="M34.6319 8V6H34.6319L34.6319 8ZM24.3194 13.5352L26.0102 14.6034L25.0532 16.1182L23.4427 15.3328L24.3194 13.5352ZM19.378 12.3984V10.3984H19.378L19.378 12.3984ZM8.4151 21.3682L10.4092 21.5221L10.2667 23.3682H8.4151V21.3682ZM8.38483 21.3682L6.38565 21.3107L6.44147 19.3682H8.38483V21.3682ZM8.36041 22.2178L10.3596 22.2752L10.3596 22.2761L8.36041 22.2178ZM37.9229 30.3369L37.923 32.3369H37.9229V30.3369ZM44.3799 26.9775L42.7436 25.8275L42.8287 25.7065L42.9307 25.5992L44.3799 26.9775ZM46.6319 19.3242L48.6071 19.0105L48.6265 19.1325L48.6307 19.2559L46.6319 19.3242ZM34.6319 8V10C30.9262 10 27.7338 11.8751 26.0102 14.6034L24.3194 13.5352L22.6286 12.467C25.092 8.56759 29.5669 6 34.6319 6V8ZM24.3194 13.5352L23.4427 15.3328C22.2177 14.7353 20.84 14.3985 19.3779 14.3984L19.378 12.3984L19.378 10.3984C21.4617 10.3985 23.4377 10.88 25.1961 11.7375L24.3194 13.5352ZM19.378 12.3984V14.3984C14.9854 14.3984 10.7423 17.2064 10.4092 21.5221L8.4151 21.3682L6.42103 21.2142C6.97207 14.0752 13.7303 10.3984 19.378 10.3984V12.3984ZM8.4151 21.3682V23.3682H8.38483V21.3682V19.3682H8.4151V21.3682ZM8.38483 21.3682L10.384 21.4256L10.3596 22.2752L8.36041 22.2178L6.36124 22.1603L6.38565 21.3107L8.38483 21.3682ZM8.36041 22.2178L10.3596 22.2761C10.2628 25.5943 12.9266 28.3369 16.2462 28.3369V30.3369V32.3369C10.6717 32.3369 6.19882 27.7315 6.36126 22.1595L8.36041 22.2178ZM16.2462 30.3369V28.3369H37.9229V30.3369V32.3369H16.2462V30.3369ZM37.9229 30.3369L37.9228 28.3369C39.9136 28.3368 41.6742 27.3493 42.7436 25.8275L44.3799 26.9775L46.0163 28.1275C44.2313 30.6673 41.2735 32.3368 37.923 32.3369L37.9229 30.3369ZM44.3799 26.9775L42.9307 25.5992C43.8913 24.5892 44.7455 22.6838 44.6331 19.3925L46.6319 19.3242L48.6307 19.2559C48.7675 23.2584 47.7464 26.34 45.8292 28.3559L44.3799 26.9775ZM46.6319 19.3242L44.6567 19.638C44.1315 16.332 42.9362 13.9493 41.3088 12.4023C39.7052 10.8779 37.5103 10 34.6319 10L34.6319 8L34.6319 6C38.3808 6.00004 41.6121 7.17176 44.0647 9.50318C46.4936 11.812 47.9846 15.0914 48.6071 19.0105L46.6319 19.3242Z" fill="#969BA5" mask="url(#path-2-inside-1_2738_6536)"/>
<line x1="1" y1="-1" x2="11.2066" y2="-1" transform="matrix(-0.229012 0.973424 -0.98148 -0.191563 14.7848 32.3853)" stroke="#969BA5" stroke-width="2" stroke-linecap="round"/>
<line x1="1" y1="-1" x2="11.2066" y2="-1" transform="matrix(-0.229012 0.973424 -0.98148 -0.191563 21.7848 34.8694)" stroke="#969BA5" stroke-width="2" stroke-linecap="round"/>
<line x1="1" y1="-1" x2="11.2066" y2="-1" transform="matrix(-0.229012 0.973424 -0.98148 -0.191563 30.7848 32.137)" stroke="#969BA5" stroke-width="2" stroke-linecap="round"/>
<line x1="1" y1="-1" x2="11.2066" y2="-1" transform="matrix(-0.229012 0.973424 -0.98148 -0.191563 37.7848 35.1179)" stroke="#969BA5" stroke-width="2" stroke-linecap="round"/>
</svg>
