<svg width="55" height="55" viewBox="0 0 55 55" fill="none" xmlns="http://www.w3.org/2000/svg">
<rect width="55" height="55" rx="27.5" fill="#F1F4F8"/>
<path d="M16.0003 38L16.0002 38.0859" stroke="#969BA5" stroke-width="2" stroke-linecap="round"/>
<path d="M35.0003 45.2651L35.0002 45.351" stroke="#969BA5" stroke-width="2" stroke-linecap="round"/>
<path d="M28.0003 40L28.0003 40.0859" stroke="#969BA5" stroke-width="2" stroke-linecap="round"/>
<path d="M39.0004 38.0608L39.0004 38.1467" stroke="#969BA5" stroke-width="2" stroke-linecap="round"/>
<path d="M21.0003 45.2046L21.0002 45.2905" stroke="#969BA5" stroke-width="2" stroke-linecap="round"/>
<mask id="path-7-inside-1_2738_6586" fill="white">
<path d="M34.6417 9.64893C30.2566 9.6491 26.4227 12.0871 24.3292 15.7251C22.8376 14.9266 21.1604 14.478 19.3878 14.478C14.3678 14.4782 8.86705 18.0378 8.42493 24.3257H8.39563L8.34973 26.0737C8.23179 30.5112 11.7964 34.1724 16.2355 34.1724H37.9327C41.228 34.1724 44.0503 32.1513 45.2306 29.2817C46.1775 27.6062 46.74 25.2376 46.6417 22.0815C45.494 14.1491 41.2691 9.64893 34.6417 9.64893Z"/>
</mask>
<path d="M34.6417 9.64893L34.6416 7.64893H34.6417V9.64893ZM24.3292 15.7251L26.0627 16.7226L25.0953 18.4037L23.3853 17.4884L24.3292 15.7251ZM19.3878 14.478L19.3877 12.478H19.3878V14.478ZM8.42493 24.3257L10.42 24.466L10.2892 26.3257H8.42493V24.3257ZM8.39563 24.3257L6.39632 24.2732L6.44746 22.3257H8.39563V24.3257ZM8.34973 26.0737L10.349 26.1262L10.349 26.1269L8.34973 26.0737ZM45.2306 29.2817L43.3809 28.5209L43.4282 28.406L43.4894 28.2977L45.2306 29.2817ZM46.6417 22.0815L48.6211 21.7952L48.6372 21.9067L48.6408 22.0193L46.6417 22.0815ZM34.6417 9.64893L34.6418 11.6489C31.0252 11.6491 27.8265 13.6575 26.0627 16.7226L24.3292 15.7251L22.5957 14.7276C25.0189 10.5167 29.4881 7.64913 34.6416 7.64893L34.6417 9.64893ZM24.3292 15.7251L23.3853 17.4884C22.1717 16.8387 20.8173 16.478 19.3878 16.478V14.478V12.478C21.5035 12.478 23.5036 13.0146 25.2731 13.9618L24.3292 15.7251ZM19.3878 14.478L19.3879 16.478C15.1656 16.4782 10.772 19.4599 10.42 24.466L8.42493 24.3257L6.42985 24.1854C6.96211 16.6157 13.57 12.4782 19.3877 12.478L19.3878 14.478ZM8.42493 24.3257V26.3257H8.39563V24.3257V22.3257H8.42493V24.3257ZM8.39563 24.3257L10.3949 24.3782L10.349 26.1262L8.34973 26.0737L6.35042 26.0212L6.39632 24.2732L8.39563 24.3257ZM8.34973 26.0737L10.349 26.1269C10.261 29.4395 12.922 32.1724 16.2355 32.1724V34.1724V36.1724C10.6709 36.1724 6.2026 31.5829 6.35044 26.0206L8.34973 26.0737ZM16.2355 34.1724V32.1724H37.9327V34.1724V36.1724H16.2355V34.1724ZM37.9327 34.1724V32.1724C40.3888 32.1724 42.4981 30.6674 43.3809 28.5209L45.2306 29.2817L47.0802 30.0425C45.6025 33.6353 42.0671 36.1724 37.9327 36.1724V34.1724ZM45.2306 29.2817L43.4894 28.2977C44.2078 27.0267 44.7331 25.0471 44.6427 22.1438L46.6417 22.0815L48.6408 22.0193C48.7469 25.4282 48.1472 28.1858 46.9718 30.2658L45.2306 29.2817ZM46.6417 22.0815L44.6623 22.3679C44.1276 18.6721 42.9065 16.0004 41.2525 14.2743C39.6372 12.5885 37.4638 11.6489 34.6417 11.6489V9.64893V7.64893C38.4471 7.64893 41.6998 8.95947 44.1407 11.5069C46.5429 14.0139 48.0081 17.5586 48.6211 21.7952L46.6417 22.0815Z" fill="#969BA5" mask="url(#path-7-inside-1_2738_6586)"/>
</svg>
