<svg width="37" height="37" viewBox="0 0 37 37" fill="none" xmlns="http://www.w3.org/2000/svg">
<g filter="url(#filter0_g_160_475)">
<path d="M15.1025 10.3164C16.1576 7.06923 20.7514 7.06923 21.8065 10.3164C22.2784 11.7686 23.6316 12.7518 25.1585 12.7518C28.5728 12.7518 29.9924 17.1208 27.2302 19.1276C25.9949 20.0251 25.478 21.616 25.9498 23.0681C27.0049 26.3153 23.2884 29.0155 20.5262 27.0087C19.2909 26.1112 17.6182 26.1112 16.3829 27.0087C13.6207 29.0155 9.90415 26.3153 10.9592 23.0681C11.4311 21.616 10.9142 20.0251 9.67887 19.1276C6.91667 17.1208 8.33625 12.7518 11.7505 12.7518C13.2774 12.7518 14.6307 11.7686 15.1025 10.3164Z" fill="white"/>
</g>
<defs>
<filter id="filter0_g_160_475" x="4.21924" y="3.88101" width="28.4706" height="27.8167" filterUnits="userSpaceOnUse" color-interpolation-filters="sRGB">
<feFlood flood-opacity="0" result="BackgroundImageFix"/>
<feBlend mode="normal" in="SourceGraphic" in2="BackgroundImageFix" result="shape"/>
<feTurbulence type="fractalNoise" baseFrequency="2 2" numOctaves="3" seed="8599" />
<feDisplacementMap in="shape" scale="8" xChannelSelector="R" yChannelSelector="G" result="displacedImage" width="100%" height="100%" />
<feMerge result="effect1_texture_160_475">
<feMergeNode in="displacedImage"/>
</feMerge>
</filter>
</defs>
</svg>
