<svg width="37" height="37" viewBox="0 0 37 37" fill="none" xmlns="http://www.w3.org/2000/svg">
<g filter="url(#filter0_g_3422_3876)">
<path d="M15.1025 10.771C16.1576 7.52382 20.7514 7.52382 21.8065 10.771C22.2784 12.2231 23.6316 13.2063 25.1585 13.2063C28.5728 13.2063 29.9924 17.5754 27.2302 19.5822C25.9949 20.4797 25.478 22.0706 25.9498 23.5227C27.0049 26.7699 23.2884 29.4701 20.5262 27.4632C19.2909 26.5658 17.6182 26.5658 16.3829 27.4632C13.6207 29.4701 9.90415 26.7699 10.9592 23.5227C11.4311 22.0706 10.9142 20.4797 9.67887 19.5822C6.91667 17.5754 8.33625 13.2063 11.7505 13.2063C13.2774 13.2063 14.6307 12.2231 15.1025 10.771Z" fill="#FFFFB9"/>
</g>
<defs>
<filter id="filter0_g_3422_3876" x="4.21924" y="4.33545" width="28.4705" height="27.8169" filterUnits="userSpaceOnUse" color-interpolation-filters="sRGB">
<feFlood flood-opacity="0" result="BackgroundImageFix"/>
<feBlend mode="normal" in="SourceGraphic" in2="BackgroundImageFix" result="shape"/>
<feTurbulence type="fractalNoise" baseFrequency="2 2" numOctaves="3" seed="8599" />
<feDisplacementMap in="shape" scale="8" xChannelSelector="R" yChannelSelector="G" result="displacedImage" width="100%" height="100%" />
<feMerge result="effect1_texture_3422_3876">
<feMergeNode in="displacedImage"/>
</feMerge>
</filter>
</defs>
</svg>
